# xmcd
#
# Track frame offsets:
# 150
# 11542
# 23130
# 33405
# 46680
# 54212
# 67055
# 79387
# 93187
# 104392
#
# Disc length: 1560 seconds
#
#
# Revision: 3
# Processed by: cddbd v1.4PL0 Copyright (c) Steve Scherf et al.
# Submitted via: FreeRIP 2.00 
#
DISCID=7206160a
DTITLE=Ray Charles - Let's Have a ball
DYEAR=1995
DGENRE=Jazz
TTITLE0=She's On The Ball
TTITLE1=How Long
TTITLE2=Ain't That Fine
TTITLE3=Alone In The City
TTITLE4=Ray's Blues
TTITLE5=Don't Put All Your Dreams In One Basket
TTITLE6=Baby Won't You Please Come Home
TTITLE7=I'm Gonna Drown Myself
TTITLE8=Let's Have A Ball
TTITLE9=You Always Miss The Water
EXTD=Sold as a 2 CD set form  Deuce Packs #BX98322-2CD\nR&b Prime Cuts Legends
EXTT0=
EXTT1=
EXTT2=
EXTT3=
EXTT4=
EXTT5=
EXTT6=
EXTT7=
EXTT8=
EXTT9=
PLAYORDER=
